<svg xmlns="http://www.w3.org/2000/svg" viewBox="0 0 1080 1080"><defs><style>.cls-1{fill:#404752;}.cls-2{fill:#a9bed9;}.cls-3{fill:#4c709e;}</style></defs><g id="bg"><rect id="Dark_2" data-name="Dark 2" class="cls-1" x="2" y="-2" width="1078" height="1082"/></g><g id="Logo"><g id="Dark_mini" data-name="Dark mini"><path class="cls-2" d="M708.74,698.76a4,4,0,0,1-4-4V499c0-45.75-18.89-68-57.74-68-26.84,0-46.75,7.79-59.18,23.15-12.63,15.62-19,40.11-19,72.79V694.76a4,4,0,0,1-4,4H515.22a4,4,0,0,1-4-4V499c0-22.91-4.76-40.21-14.15-51.42-9.22-11-24.07-16.56-44.14-16.56-26.6,0-46.25,8.13-58.41,24.16-12.41,16.37-18.7,44-18.7,82V694.76a4,4,0,0,1-4,4H322a4,4,0,0,1-4-4v-304a4,4,0,0,1,4-4h40.15a4,4,0,0,1,3.93,3.29l6.27,34.83a95.26,95.26,0,0,1,34.86-30.74c16.29-8.57,34.75-12.92,54.88-12.92,47.12,0,79,16.51,94.75,49.08A104.45,104.45,0,0,1,596,395c17.39-9.12,37.34-13.75,59.31-13.75,35.29,0,62.2,9.36,80,27.8S762,457,762,496.81v198a4,4,0,0,1-4,4Z"/><path class="cls-2" d="M655.31,385.24q51.5,0,77.1,26.58t25.61,85v198H708.74V499q0-72-61.74-72-42.36,0-62.29,24.64T564.78,527V694.76H515.22V499q0-36-15.09-54t-47.2-18q-42.07,0-61.6,25.74t-19.51,84.44V694.76H322v-304h40.15l7.47,41.53h2.77a90.3,90.3,0,0,1,36.68-34.61q23.67-12.45,53-12.46,71.43,0,93,50.94h2.77a100.08,100.08,0,0,1,40-37.65q25.33-13.29,57.45-13.29m0-8c-22.62,0-43.2,4.78-61.17,14.21a108.48,108.48,0,0,0-36.83,31.23C540,392.51,508,377.24,462.07,377.24c-20.79,0-39.88,4.5-56.74,13.38a100.15,100.15,0,0,0-30.68,24.57L370,389.36a8,8,0,0,0-7.87-6.58H322a8,8,0,0,0-8,8v304a8,8,0,0,0,8,8h49.84a8,8,0,0,0,8-8V537.23c0-37.16,6-63.94,17.89-79.6,11.52-15.2,29.58-22.58,55.22-22.58,19.1,0,32.53,4.95,41.07,15.13,8.77,10.47,13.22,26.9,13.22,48.85V694.76a8,8,0,0,0,8,8h49.56a8,8,0,0,0,8-8V527c0-31.74,6.11-55.38,18.15-70.27,11.8-14.58,30.14-21.67,56.07-21.67,36.66,0,53.74,20.33,53.74,64V694.76a8,8,0,0,0,8,8H758a8,8,0,0,0,8-8V496.81c0-40.9-9.37-71.36-27.85-90.54s-46.44-29-82.86-29Z"/><path class="cls-3" d="M70.3,517.88c59.26,0,67.6-32.54,67.6-61.75,0-23.37-3.34-46.74-6.68-70.1s-6.68-45.9-6.68-69.27c0-76.77,50.91-109.32,121.84-109.32h16.69v45.9h-15c-48.4.83-65.93,26.71-65.93,71.77,0,19.19,3.34,39.22,5.84,59.25,3.34,20.86,6.68,40.89,6.68,63.42,0,53.41-23.38,80.12-60.09,90.13v1.67c36.71,9.18,60.09,37.56,60.09,91,0,22.52-3.34,43.39-6.68,63.42-2.5,20.86-5.84,40.06-5.84,60.08,0,46.73,20,71.77,66.76,72.61h14.18v45.9H245.54c-68.43,0-121-30-121-114.34,0-22.52,3.34-45.89,6.68-68.42s6.68-45.07,6.68-67.6c0-25.87-8.34-61.76-67.6-61.76Z"/><path class="cls-3" d="M1009.7,560.44c-59.26,0-67.6,35.89-67.6,61.76,0,22.53,3.34,45.06,6.68,67.6s6.68,45.9,6.68,68.42c0,84.29-52.57,114.34-121,114.34H816.93v-45.9h14.18c46.74-.84,66.76-25.88,66.76-72.61,0-20-3.34-39.22-5.84-60.08-3.34-20-6.68-40.9-6.68-63.42,0-53.41,23.38-81.79,60.09-91v-1.67c-36.71-10-60.09-36.72-60.09-90.13,0-22.53,3.34-42.56,6.68-63.42,2.5-20,5.84-40.06,5.84-59.25,0-45.06-17.53-70.94-65.93-71.77h-15v-45.9h16.69c70.93,0,121.84,32.55,121.84,109.32,0,23.37-3.34,45.9-6.68,69.27s-6.68,46.73-6.68,70.1c0,29.21,8.34,61.75,67.6,61.75Z"/></g></g></svg>