<svg xmlns="http://www.w3.org/2000/svg" viewBox="0 0 1920 1080"><defs><style>.cls-1{fill:#404752;}.cls-2{fill:#4c709e;}.cls-3{fill:#a9bed9;}</style></defs><g id="bg"><rect id="Dark_1" data-name="Dark 1" class="cls-1" width="1920" height="1080"/></g><g id="Logo"><g id="Dark_full" data-name="Dark full"><path class="cls-2" d="M64,525.25c39.51,0,45.07-21.69,45.07-41.16,0-15.58-2.23-31.16-4.45-46.74s-4.46-30.6-4.46-46.18c0-51.18,33.94-72.87,81.23-72.87h11.13v30.6h-10c-32.27.55-44,17.8-44,47.84,0,12.8,2.23,26.15,3.9,39.5,2.22,13.91,4.45,27.26,4.45,42.28,0,35.61-15.58,53.41-40.06,60.09v1.11c24.48,6.12,40.06,25,40.06,60.64,0,15-2.23,28.93-4.45,42.28-1.67,13.91-3.9,26.71-3.9,40.06,0,31.16,13.35,47.85,44.51,48.4h9.46v30.6H180.83c-45.62,0-80.67-20-80.67-76.22,0-15,2.23-30.59,4.46-45.62s4.45-30,4.45-45.06c0-17.25-5.56-41.17-45.07-41.17Z"/><path class="cls-2" d="M1856,553.63c-39.51,0-45.07,23.92-45.07,41.17,0,15,2.23,30,4.45,45.06s4.46,30.6,4.46,45.62c0,56.2-35,76.22-80.67,76.22h-11.69V731.1h9.46c31.16-.55,44.51-17.24,44.51-48.4,0-13.35-2.23-26.15-3.9-40.06-2.22-13.35-4.45-27.26-4.45-42.28,0-35.6,15.58-54.52,40.06-60.64v-1.11c-24.48-6.68-40.06-24.48-40.06-60.09,0-15,2.23-28.37,4.45-42.28,1.67-13.35,3.9-26.7,3.9-39.5,0-30-11.69-47.29-44-47.84h-10V318.3h11.13c47.29,0,81.23,21.69,81.23,72.87,0,15.58-2.23,30.6-4.46,46.18s-4.45,31.16-4.45,46.74c0,19.47,5.56,41.16,45.07,41.16Z"/><path class="cls-3" d="M505.67,645.11V505.42q0-51.36-44.07-51.37-30.23,0-44.45,17.59t-14.23,53.74V645.11H367.56V505.42q0-25.68-10.77-38.52T323.1,454.05q-30,0-44,18.38t-13.93,60.26V645.11H229.65V428.17h28.64l5.34,29.64h2a64.48,64.48,0,0,1,26.18-24.7q16.91-8.89,37.84-8.89,51,0,66.39,36.35h2a71.44,71.44,0,0,1,28.55-26.87q18.09-9.48,41-9.48,36.75,0,55,19t18.27,60.65V645.11Z"/><path class="cls-3" d="M574,428.17h38.13L659,551.66q14.82,40.3,18.17,59.07h1.59q1.77-7.31,8.1-27.36t10.67-32.11l44.06-123.09h38.33l-93.46,247q-13.63,36-32.4,51.56t-46.43,15.61A131,131,0,0,1,578.18,739V710.71a102.88,102.88,0,0,0,23.71,2.37q17,0,28.84-9.39t19.37-28.94l11.26-28.85Z"/><path class="cls-3" d="M955.56,585.25q0,30.42-22.73,47.12T869,649.06q-42.87,0-68.16-13.63V603q35.76,17.38,69,17.39,26.87,0,39.12-8.7t12.25-23.31q0-12.84-11.76-21.74t-41.79-20.35Q837,534.47,824.56,526.07T806.28,507.2q-5.82-10.47-5.83-25.49,0-26.67,21.74-42.08t59.67-15.41A165.26,165.26,0,0,1,951,438.84l-12,28.25q-33-13.81-59.47-13.83-22.14,0-33.59,7t-11.46,19.26q0,11.85,9.88,19.66t46,21.63q27.07,10.08,40,18.77t19.07,19.57Q955.55,570,955.56,585.25Z"/><path class="cls-3" d="M1080.62,620a112.33,112.33,0,0,0,16.21-1.38,73.5,73.5,0,0,0,14-3.16v27.26q-4.93,2.18-15.31,4.25a107.22,107.22,0,0,1-21,2.07q-63.63,0-63.62-67V455.83H980.25v-17l31-14.23,14.23-46.23h21.14v49.79h62.63v27.66h-62.63V581.1q0,18.76,9,28.84T1080.62,620Z"/><path class="cls-3" d="M1256.86,424.61q42.89,0,66.19,29.54t23.32,82.49q0,53.75-23.71,83.08t-65.8,29.34q-21.93,0-39.12-7.9a68.39,68.39,0,0,1-28-23.51h-2.77q-6.12,23.72-7.31,27.46h-25.49V337.68h35.57v74.68q0,22.33-2,44.66h2Q1211.62,424.62,1256.86,424.61Zm-5.92,29.44q-32.81,0-47,18.58t-14.22,62.83V537q0,44.44,14.52,63.52t47.52,19.06q29.24,0,43.56-21.43t14.33-61.94q0-41.1-14.42-61.65T1250.94,454.05Z"/><path class="cls-3" d="M1400.31,369.49q0-11.85,6-17.19a23,23,0,0,1,29.44,0q6.23,5.34,6.23,17.19,0,11.65-6.23,17.19a22.35,22.35,0,0,1-29.44,0Q1400.3,381.15,1400.31,369.49Zm38.33,275.62h-35.57V428.17h35.57Z"/><path class="cls-3" d="M1655.19,645.11V506.41q0-26.48-11.76-39.42t-36.85-12.94q-33.39,0-48.5,18.48T1543,532.69V645.11H1507.4V428.17H1536l5.34,29.64h2a66.9,66.9,0,0,1,28.25-24.8,90.92,90.92,0,0,1,40.11-8.79q39.9,0,59.27,19.36t19.36,60.26V645.11Z"/></g></g></svg>