<?xml version="1.0" standalone="no"?>
<!DOCTYPE svg PUBLIC "-//W3C//DTD SVG 20010904//EN"
 "http://www.w3.org/TR/2001/REC-SVG-20010904/DTD/svg10.dtd">
<svg xmlns="http://www.w3.org/2000/svg" viewBox="0 0 24 24">
    <path fill="#2e2e33" d="M 3 5 C 1.896 5 1 5.896 1 7 L 1 17 C 1 18.104 1.896 19 3 19 L 21 19 C 22.104 19 23 18.104 23 17 L 23 7 C 23 5.896 22.104 5 21 5 L 3 5 z M 12.84375 8.96875 L 13.96875 8.96875 L 13.96875 14.96875 L 12.84375 14.96875 L 12.84375 8.96875 z M 8.9375 9.28125 L 10.03125 9.28125 L 12.15625 14.96875 L 10.90625 14.96875 L 10.53125 13.78125 L 8.46875 13.78125 L 8.0625 14.96875 L 6.8125 14.96875 L 8.9375 9.28125 z M 15.28125 9.6875 L 16.40625 9.6875 L 16.40625 10.71875 L 17.125 10.71875 L 17.125 11.5625 L 16.40625 11.5625 L 16.40625 13.65625 C 16.40625 13.94625 16.47975 14.09375 16.84375 14.09375 C 16.91075 14.09375 17.1455 14.10075 17.1875 14.09375 L 17.1875 14.9375 C 17.0935 14.9655 16.851 15.03125 16.5 15.03125 C 15.247 15.03125 15.28125 13.96425 15.28125 13.78125 L 15.28125 11.5625 L 14.65625 11.5625 L 14.65625 10.75 L 15.28125 10.75 L 15.28125 9.6875 z M 9.5 10.71875 L 8.78125 12.84375 L 10.1875 12.84375 L 9.5 10.71875 z"/>
</svg>