<svg xmlns="http://www.w3.org/2000/svg" viewBox="0 0 939.41 665.11" fill="#8a8a8d"><g id="Layer_2" data-name="Layer 2"><g id="Logo"><g id="Mono_dark_mini" data-name="Mono dark mini"><path d="M638.44 491.31a4 4 0 0 1-4-4V291.58c0-45.74-18.88-68-57.74-68-26.83 0-46.75 7.8-59.18 23.16-12.63 15.62-19 40.11-19 72.79v167.78a4 4 0 0 1-4 4h-49.59a4 4 0 0 1-4-4V291.58c0-22.91-4.77-40.21-14.16-51.41-9.22-11-24.07-16.57-44.13-16.57-26.61 0-46.26 8.13-58.41 24.17-12.42 16.37-18.71 44-18.71 82v157.54a4 4 0 0 1-4 4h-49.83a4 4 0 0 1-4-4v-304a4 4 0 0 1 4-4h40.14a4 4 0 0 1 3.94 3.29l6.23 34.85a95.12 95.12 0 0 1 34.85-30.73c16.29-8.57 34.75-12.92 54.88-12.92 47.13 0 79 16.51 94.75 49.08a104.4 104.4 0 0 1 39.19-35.33c17.38-9.12 37.34-13.75 59.3-13.75 35.3 0 62.21 9.35 80 27.8s26.73 47.94 26.73 87.77v197.94a4 4 0 0 1-4 4Z" class="cls-1"></path><path d="M585 177.8q51.5 0 77.1 26.58t25.61 85v197.93h-49.27V291.58q0-72-61.74-72-42.35 0-62.29 24.64t-19.93 75.31v167.78h-49.55V291.58q0-36-15.09-54t-47.2-18q-42.09 0-61.6 25.75t-19.52 84.44v157.54h-49.83v-304h40.14l7.48 41.52h2.76a90.36 90.36 0 0 1 36.69-34.6q23.67-12.47 53-12.46 71.43 0 93 50.94h2.77a100.14 100.14 0 0 1 40-37.65Q552.9 177.8 585 177.8m0-8c-22.62 0-43.2 4.78-61.16 14.21A108.42 108.42 0 0 0 487 215.24c-17.35-30.17-49.33-45.44-95.24-45.44-20.78 0-39.87 4.5-56.74 13.38a100.39 100.39 0 0 0-30.68 24.57l-4.65-25.83a8 8 0 0 0-7.87-6.58h-40.13a8 8 0 0 0-8 8v304a8 8 0 0 0 8 8h49.83a8 8 0 0 0 8-8V329.79c0-37.16 6-63.94 17.89-79.61C338.93 235 357 227.6 382.64 227.6c19.09 0 32.53 5 41.07 15.14 8.77 10.46 13.22 26.9 13.22 48.84v195.73a8 8 0 0 0 8 8h49.55a8 8 0 0 0 8-8V319.55c0-31.74 6.11-55.38 18.15-70.27 11.8-14.59 30.14-21.68 56.07-21.68 36.67 0 53.74 20.33 53.74 64v195.71a8 8 0 0 0 8 8h49.28a8 8 0 0 0 8-8V289.37c0-40.9-9.37-71.36-27.85-90.54s-46.44-29-82.86-29Z" class="cls-1"></path><path d="M0 310.44c59.26 0 67.6-32.55 67.6-61.75 0-23.37-3.34-46.74-6.68-70.1s-6.67-45.9-6.67-69.27C54.25 32.54 105.15 0 176.08 0h16.7v45.9h-15c-48.4.83-65.93 26.7-65.93 71.77 0 19.19 3.34 39.22 5.84 59.25 3.34 20.86 6.68 40.89 6.68 63.42 0 53.41-23.37 80.12-60.09 90.13v1.67c36.72 9.18 60.09 37.55 60.09 91 0 22.53-3.34 43.4-6.68 63.42-2.5 20.87-5.84 40.06-5.84 60.09 0 46.73 20 71.77 66.77 72.6h14.18v45.9h-17.55c-68.43 0-121-30-121-114.33 0-22.53 3.34-45.89 6.67-68.43s6.68-45.06 6.68-67.59c0-25.92-8.34-61.8-67.6-61.8ZM939.41 353c-59.26 0-67.6 35.88-67.6 61.76 0 22.53 3.33 45.06 6.67 67.59s6.68 45.9 6.68 68.43c0 84.29-52.57 114.33-121 114.33h-17.53v-45.9h14.18c46.74-.83 66.76-25.87 66.76-72.6 0-20-3.33-39.22-5.84-60.09-3.33-20-6.67-40.89-6.67-63.42 0-53.41 23.37-81.78 60.08-91v-1.67c-36.71-10-60.08-36.72-60.08-90.13 0-22.53 3.34-42.56 6.67-63.42 2.51-20 5.84-40.06 5.84-59.25 0-45.07-17.53-70.94-65.92-71.77h-15V0h16.69c70.93 0 121.84 32.54 121.84 109.32 0 23.37-3.34 45.9-6.68 69.27s-6.67 46.73-6.67 70.1c0 29.2 8.34 61.75 67.6 61.75Z" class="cls-2"></path></g></g></g></svg>